<?xml version="1.0" standalone="no"?>
<!DOCTYPE svg PUBLIC "-//W3C//DTD SVG 20010904//EN"
 "http://www.w3.org/TR/2001/REC-SVG-20010904/DTD/svg10.dtd">
<svg version="1.0" xmlns="http://www.w3.org/2000/svg"
 width="640.000000pt" height="640.000000pt" viewBox="0 0 640.000000 640.000000"
 preserveAspectRatio="xMidYMid meet">
<metadata>
Created by potrace 1.11, written by Peter Selinger 2001-2013
</metadata>
<g transform="translate(0.000000,640.000000) scale(0.100000,-0.100000)"
fill="#000000" stroke="none">
<path d="M3075 6314 c-675 -31 -1301 -267 -1835 -693 -129 -103 -358 -332
-465 -466 -300 -376 -508 -805 -610 -1261 -59 -264 -69 -364 -69 -689 0 -325
10 -427 69 -690 201 -897 823 -1684 1650 -2090 198 -97 304 -140 487 -195 553
-167 1171 -174 1732 -19 501 138 989 423 1361 794 484 483 779 1069 888 1765
18 115 21 179 21 435 0 325 -10 425 -69 689 -128 572 -416 1090 -839 1511
-370 369 -794 623 -1288 775 -310 95 -716 148 -1033 134z m70 -1121 c7 -27 14
-33 37 -33 34 0 54 -31 38 -60 -7 -13 -21 -20 -40 -20 -25 0 -29 -4 -32 -31
-6 -61 -69 -65 -76 -5 -3 19 -9 26 -26 26 -63 0 -76 74 -16 87 22 4 30 11 30
27 0 30 20 47 50 44 18 -2 27 -11 35 -35z m1317 -223 c25 -19 25 -19 44 1 38
42 92 1 63 -49 -14 -25 -14 -29 4 -53 36 -50 -19 -94 -65 -52 -17 15 -19 15
-36 0 -46 -41 -95 -3 -63 48 16 28 16 30 -1 47 -22 22 -23 42 -2 62 20 21 26
20 56 -4z m-2952 -80 c25 -25 25 -32 1 -61 -19 -23 -19 -24 0 -48 10 -13 19
-31 19 -40 0 -39 -49 -54 -86 -27 -17 13 -21 12 -41 -6 -45 -42 -111 15 -69
61 20 22 20 35 1 51 -18 15 -20 51 -3 68 17 17 48 15 69 -4 17 -15 20 -15 45
5 33 26 39 26 64 1z m1165 -20 c9 -10 20 -40 22 -65 6 -45 6 -45 45 -45 47 0
88 -35 88 -75 0 -40 -41 -75 -88 -75 l-39 0 -6 -47 c-8 -70 -61 -103 -117 -73
-23 12 -44 72 -35 100 6 18 2 20 -40 20 -120 0 -129 135 -10 149 l47 6 3 43
c2 24 11 52 21 63 23 26 85 26 109 -1z m-1284 -720 c23 -13 24 -38 3 -68 -15
-21 -15 -25 1 -42 9 -10 15 -29 13 -42 -4 -29 -42 -36 -69 -12 -18 17 -20 16
-43 -5 -45 -43 -94 2 -60 54 16 24 16 27 -1 45 -26 29 -13 70 22 70 14 0 34
-7 43 -15 15 -14 19 -13 35 5 21 23 29 24 56 10z m1544 -347 c6 -23 15 -33 30
-33 25 0 40 -10 48 -33 8 -22 -25 -57 -53 -57 -14 0 -20 -7 -20 -22 0 -36 -15
-50 -46 -46 -23 2 -30 9 -34 33 -4 23 -11 31 -30 33 -36 5 -51 22 -48 51 2 19
11 28 36 35 23 6 32 15 32 30 0 30 20 47 50 44 18 -2 27 -11 35 -35z m715
-753 c25 -25 25 -31 0 -62 -19 -25 -19 -26 0 -43 53 -48 -7 -113 -64 -70 -16
12 -22 11 -46 -7 -18 -13 -35 -18 -49 -13 -28 9 -38 51 -17 74 20 22 20 35 1
51 -18 15 -20 51 -3 68 17 17 48 15 69 -4 17 -15 20 -15 45 5 33 26 39 26 64
1z m1848 8 c7 -7 12 -22 12 -35 0 -17 6 -23 21 -23 72 0 81 -72 9 -82 -17 -2
-24 -8 -22 -20 5 -28 -17 -58 -41 -58 -29 0 -47 18 -47 47 0 18 -6 23 -24 23
-23 0 -56 23 -56 39 0 17 27 40 50 43 18 2 26 10 28 28 7 46 42 66 70 38z
m-2964 -24 c9 -8 16 -26 16 -40 0 -20 5 -24 29 -24 39 0 57 -23 43 -55 -9 -19
-19 -25 -42 -25 -26 0 -30 -4 -30 -28 0 -30 -16 -52 -36 -52 -21 0 -44 30 -44
56 0 20 -5 24 -28 24 -30 0 -52 16 -52 36 0 21 30 44 56 44 20 0 24 5 24 28 0
48 34 67 64 36z m2651 -595 l35 -31 35 31 c43 37 78 39 110 6 33 -32 31 -67
-6 -110 l-31 -35 31 -35 c37 -43 39 -78 6 -110 -32 -33 -67 -31 -110 6 l-35
31 -35 -31 c-43 -37 -78 -39 -110 -6 -33 32 -31 67 6 110 l31 35 -31 35 c-37
43 -39 78 -6 110 32 33 67 31 110 -6z m-1887 -433 c3 -32 6 -36 32 -36 30 0
60 -22 60 -45 0 -23 -30 -45 -61 -45 -25 0 -29 -4 -29 -28 0 -33 -16 -52 -45
-52 -29 0 -45 19 -45 52 0 24 -4 28 -28 28 -33 0 -52 16 -52 45 0 29 19 45 52
45 24 0 28 4 28 29 0 37 33 63 64 52 15 -6 22 -18 24 -45z m-1508 -456 c14
-14 20 -33 20 -65 l0 -45 45 0 c56 0 85 -25 85 -73 0 -44 -27 -68 -85 -74 -45
-6 -45 -6 -45 -45 0 -28 -7 -46 -25 -63 -50 -51 -113 -21 -122 58 -5 44 -7 47
-35 47 -83 0 -123 65 -77 124 17 21 29 26 65 26 l44 0 0 39 c0 78 79 122 130
71z m2653 -207 c8 -10 17 -38 19 -63 l4 -45 48 -6 c120 -13 112 -149 -9 -149
l-45 0 0 -45 c0 -54 -25 -85 -69 -85 -45 0 -72 29 -78 83 l-6 47 -39 0 c-47 0
-88 35 -88 75 0 40 41 75 88 75 39 0 39 0 45 45 2 25 13 55 22 65 23 26 86 27
108 3z m-875 -359 c21 -15 25 -15 41 0 25 22 58 20 72 -5 9 -18 7 -26 -9 -49
-21 -28 -21 -28 -1 -45 22 -20 25 -45 7 -63 -17 -17 -38 -15 -60 5 -17 15 -19
15 -36 0 -49 -44 -109 7 -65 55 15 17 15 19 0 36 -20 22 -22 53 -5 70 16 16
29 15 56 -4z"/>
</g>
</svg>
